<?xml version="1.0" standalone="no"?>
<!DOCTYPE svg PUBLIC "-//W3C//DTD SVG 20010904//EN"
 "http://www.w3.org/TR/2001/REC-SVG-20010904/DTD/svg10.dtd">
<svg version="1.0" xmlns="http://www.w3.org/2000/svg"
 width="700.000000pt" height="700.000000pt" viewBox="0 0 700.000000 700.000000"
 preserveAspectRatio="xMidYMid meet">
<metadata>
Created by potrace 1.11, written by Peter Selinger 2001-2013
</metadata>
<g transform="translate(0.000000,700.000000) scale(0.100000,-0.100000)"
fill="#000000" stroke="none">
<path d="M1422 4170 c-58 -5 -67 -9 -98 -42 -26 -29 -34 -46 -34 -76 l0 -39
-60 2 c-33 1 -74 -3 -92 -9 -24 -8 -42 -8 -67 0 -40 13 -141 10 -170 -5 -46
-25 -56 -57 -58 -188 0 -68 -1 -129 -2 -136 -1 -10 -41 -13 -185 -14 -201 -1
-221 -6 -269 -63 -48 -56 -48 -144 0 -200 47 -57 68 -62 265 -62 155 0 180 -3
186 -17 4 -9 7 -68 6 -131 -1 -125 8 -158 51 -186 30 -19 131 -25 177 -10 24
9 42 9 68 0 19 -6 60 -10 91 -8 l57 3 5 -47 c4 -37 12 -53 41 -79 29 -27 44
-33 83 -34 99 -2 149 3 177 16 24 13 32 12 57 0 19 -10 59 -15 121 -15 76 0
99 4 126 20 53 32 62 69 62 240 l0 150 40 0 c44 0 60 18 60 68 l0 29 1454 0
1453 0 0 -31 c-1 -47 13 -64 58 -68 l40 -3 0 -155 c1 -171 9 -200 66 -234 40
-24 193 -25 237 -2 29 15 35 15 62 1 46 -24 203 -21 244 5 38 23 56 54 60 101
l3 34 69 1 c38 0 79 6 92 13 18 10 26 10 38 0 21 -17 156 -17 189 1 47 25 55
56 55 203 l0 134 163 0 c100 0 177 5 200 12 69 23 116 102 103 176 -2 17 -5
33 -5 37 -1 3 -13 20 -27 38 -48 57 -70 62 -261 63 l-173 1 0 133 c0 145 -9
178 -53 202 -34 18 -135 21 -176 4 -26 -10 -37 -10 -48 -1 -8 7 -47 12 -91 12
l-77 0 -1 37 c-2 45 -27 85 -66 105 -40 21 -196 20 -237 -1 -28 -14 -33 -14
-54 0 -37 24 -204 24 -246 -1 -55 -33 -67 -72 -66 -227 0 -75 -2 -137 -5 -138
-3 0 -19 -2 -37 -2 -44 -3 -54 -16 -56 -73 l-2 -49 -1453 -1 -1452 -1 -1 31
c-2 85 -12 99 -66 92 l-33 -4 0 139 c0 157 -9 193 -59 228 -28 20 -44 23 -125
23 -67 0 -103 -5 -126 -17 -26 -13 -34 -14 -47 -4 -20 17 -101 25 -181 19z
m147 -97 c14 -17 16 -84 16 -576 0 -645 10 -590 -107 -592 -123 -2 -113 -56
-112 596 0 305 4 561 8 568 13 21 48 29 115 26 50 -2 68 -7 80 -22z m297 2
c11 -15 14 -122 14 -581 0 -654 12 -592 -116 -588 -42 1 -81 7 -87 13 -14 14
-20 1112 -6 1148 10 26 24 29 113 28 55 -1 72 -5 82 -20z m3481 2 c13 -12 15
-99 15 -577 0 -493 -2 -564 -15 -578 -11 -10 -38 -15 -92 -16 -120 -3 -110
-58 -110 592 0 554 0 557 21 578 18 19 30 21 94 19 47 -2 78 -9 87 -18z m299
-1 c10 -15 13 -132 13 -577 0 -653 11 -595 -115 -593 -62 0 -79 4 -90 19 -20
26 -21 1123 -1 1147 17 22 31 25 110 23 54 -1 73 -5 83 -19z m-4587 -154 c9
-15 8 -838 -1 -847 -14 -14 -109 -13 -123 1 -11 11 -13 92 -13 429 0 363 2
416 16 424 21 12 112 7 121 -7z m219 5 c9 -6 12 -103 12 -426 0 -323 -3 -421
-12 -428 -18 -14 -118 -10 -127 5 -3 6 -6 198 -6 427 0 332 3 417 13 424 16
10 102 8 120 -2z m4590 -1 c9 -5 12 -106 12 -426 0 -389 -1 -420 -17 -428 -20
-10 -109 -9 -120 1 -3 4 -6 196 -6 428 0 325 3 423 12 429 16 9 102 7 119 -4z
m228 1 c12 -12 7 -849 -5 -856 -9 -6 -71 -7 -118 -2 -18 1 -19 857 -2 863 20
7 117 3 125 -5z m-4116 -412 c0 -123 -4 -195 -10 -195 -6 0 -10 72 -10 195 0
123 4 195 10 195 6 0 10 -72 10 -195z m3085 0 c0 -123 -4 -195 -10 -195 -6 0
-10 70 -9 192 2 212 1 198 12 198 4 0 7 -88 7 -195z m-4230 66 c8 -1 12 -81 6
-151 -1 -13 -26 -15 -164 -14 -89 1 -170 2 -180 3 -28 2 -67 47 -67 78 0 33
24 71 50 81 15 6 315 8 355 3z m4127 0 c3 0 6 -38 5 -83 l-2 -82 -1453 -1
-1452 0 -1 28 c-1 35 -1 79 0 115 l1 27 1447 -1 c797 -1 1451 -2 1455 -3z
m1584 -25 c30 -35 31 -77 1 -112 l-24 -27 -154 -1 c-85 -1 -162 0 -171 2 -15
4 -18 16 -18 82 0 67 3 79 18 82 9 2 86 3 171 3 l154 -1 23 -28z"/>
</g>
</svg>
